<mxfile host="app.diagrams.net" modified="2021-07-13T09:08:47.731Z" agent="5.0 (Macintosh; Intel Mac OS X 10_15_7) AppleWebKit/537.36 (KHTML, like Gecko) Chrome/91.0.4472.114 Safari/537.36" etag="yydSdHrJgCjE8l0eQ6-7" version="14.8.6" type="github">
  <diagram id="v6fTK_eY8DQylmo3bhVa" name="Page-1">
    <mxGraphModel dx="1298" dy="723" grid="1" gridSize="10" guides="1" tooltips="1" connect="1" arrows="1" fold="1" page="1" pageScale="1" pageWidth="827" pageHeight="1169" math="0" shadow="0">
      <root>
        <mxCell id="0" />
        <mxCell id="1" parent="0" />
        <mxCell id="tlTfGDxFYHrREQJzia-7-3" value="" style="edgeStyle=orthogonalEdgeStyle;rounded=0;orthogonalLoop=1;jettySize=auto;html=1;" edge="1" parent="1" source="tlTfGDxFYHrREQJzia-7-1" target="tlTfGDxFYHrREQJzia-7-2">
          <mxGeometry relative="1" as="geometry" />
        </mxCell>
        <mxCell id="tlTfGDxFYHrREQJzia-7-1" value="" style="ellipse;whiteSpace=wrap;html=1;fillColor=#f8cecc;strokeColor=#b85450;" vertex="1" parent="1">
          <mxGeometry x="220" y="200" width="120" height="80" as="geometry" />
        </mxCell>
        <mxCell id="tlTfGDxFYHrREQJzia-7-2" value="" style="rounded=0;whiteSpace=wrap;html=1;fillColor=#fff2cc;strokeColor=#d6b656;" vertex="1" parent="1">
          <mxGeometry x="450" y="210" width="120" height="60" as="geometry" />
        </mxCell>
      </root>
    </mxGraphModel>
  </diagram>
</mxfile>
